#tb 0: 1/25
0,          0,          0,        1,   152064, 0xb1edd842
0,          1,          1,        1,   152064, 0x551f8f45
0,          2,          2,        1,   152064, 0xb4931cb2
0,          3,          3,        1,   152064, 0x5f352e98
0,          4,          4,        1,   152064, 0xeba5fe28
0,          5,          5,        1,   152064, 0x85afad0a
0,          6,          6,        1,   152064, 0x1120b6a4
0,          7,          7,        1,   152064, 0x67506e16
0,          8,          8,        1,   152064, 0x22421437
0,          9,          9,        1,   152064, 0x929becd6
0,         10,         10,        1,   152064, 0x6ffcb4b0
0,         11,         11,        1,   152064, 0x668a5d31
0,         12,         12,        1,   152064, 0x1b034ebb
0,         13,         13,        1,   152064, 0x7e2d213c
0,         14,         14,        1,   152064, 0xbf16d262
0,         15,         15,        1,   152064, 0xdeaecab3
0,         16,         16,        1,   152064, 0xd220d704
0,         17,         17,        1,   152064, 0xb40b8632
0,         18,         18,        1,   152064, 0xbdf0ef57
0,         19,         19,        1,   152064, 0x7e2e10df
0,         20,         20,        1,   152064, 0x95380024
0,         21,         21,        1,   152064, 0xdb80256d
0,         22,         22,        1,   152064, 0xa4561c61
0,         23,         23,        1,   152064, 0x08c8dea4
0,         24,         24,        1,   152064, 0x7bb917d6
0,         25,         25,        1,   152064, 0x796f0e2b
0,         26,         26,        1,   152064, 0x7f40c77a
0,         27,         27,        1,   152064, 0xda32de2e
0,         28,         28,        1,   152064, 0x00ffc15a
0,         29,         29,        1,   152064, 0x643c8316
0,         30,         30,        1,   152064, 0xb7588f7f
0,         31,         31,        1,   152064, 0xa4e07c02
0,         32,         32,        1,   152064, 0xdee0f7e7
0,         33,         33,        1,   152064, 0x2c3245ee
0,         34,         34,        1,   152064, 0x6565355b
0,         35,         35,        1,   152064, 0x90bce66b
0,         36,         36,        1,   152064, 0x0abffe08
0,         37,         37,        1,   152064, 0x119ccc3e
0,         38,         38,        1,   152064, 0xff997ef2
0,         39,         39,        1,   152064, 0xba4b9820
0,         40,         40,        1,   152064, 0xb6dfa596
0,         41,         41,        1,   152064, 0xb0906c42
0,         42,         42,        1,   152064, 0xf3c29133
0,         43,         43,        1,   152064, 0x08cd8e2b
0,         44,         44,        1,   152064, 0x4efc61fb
0,         45,         45,        1,   152064, 0x5b7c6e48
0,         46,         46,        1,   152064, 0xd28a47c2
0,         47,         47,        1,   152064, 0x28e7d51f
0,         48,         48,        1,   152064, 0x3a5619b1
0,         49,         49,        1,   152064, 0xa517e7f2
0,         50,         50,        1,   152064, 0xb4978ef8
0,         51,         51,        1,   152064, 0x25929175
0,         52,         52,        1,   152064, 0x20f05834
0,         53,         53,        1,   152064, 0xba86ffb2
0,         54,         54,        1,   152064, 0xa265f06f
0,         55,         55,        1,   152064, 0x97bbbfb7
0,         56,         56,        1,   152064, 0xfd488a5d
0,         57,         57,        1,   152064, 0x1b0989da
0,         58,         58,        1,   152064, 0xfd1878ce
0,         59,         59,        1,   152064, 0x9360397c
0,         60,         60,        1,   152064, 0x0d8151a7
0,         61,         61,        1,   152064, 0xe7a05bb8
0,         62,         62,        1,   152064, 0x009fd46c
0,         63,         63,        1,   152064, 0x8751123f
0,         64,         64,        1,   152064, 0x8252101a
0,         65,         65,        1,   152064, 0x7f40de4b
0,         66,         66,        1,   152064, 0x4ea317fe
0,         67,         67,        1,   152064, 0x519224d9
0,         68,         68,        1,   152064, 0x59f4ea93
0,         69,         69,        1,   152064, 0xc93c1dba
0,         70,         70,        1,   152064, 0xe3c9fb61
0,         71,         71,        1,   152064, 0x85c4bd98
0,         72,         72,        1,   152064, 0xcebacfd3
0,         73,         73,        1,   152064, 0x7327da99
0,         74,         74,        1,   152064, 0x752a9a2d
0,         75,         75,        1,   152064, 0x5ea6c8d2
0,         76,         76,        1,   152064, 0x66fd8c6f
0,         77,         77,        1,   152064, 0x51225fd0
0,         78,         78,        1,   152064, 0x58b9be96
0,         79,         79,        1,   152064, 0xa5abcdb7
0,         80,         80,        1,   152064, 0xb18ba61b
0,         81,         81,        1,   152064, 0xc7d20190
0,         82,         82,        1,   152064, 0xb6da14aa
0,         83,         83,        1,   152064, 0x3004f5a1
0,         84,         84,        1,   152064, 0x129354e2
0,         85,         85,        1,   152064, 0xffa148d5
0,         86,         86,        1,   152064, 0xbe9d3f5b
0,         87,         87,        1,   152064, 0x1c7f8976
0,         88,         88,        1,   152064, 0xa107a54d
0,         89,         89,        1,   152064, 0x5e319459
